PathFileType	4	(X/Y/Z)	7_coords_data.trc
DataRate	CameraRate	NumFrames	NumMarkers	Units	OrigDataRate	OrigDataStartFrame	OrigNumFrames
30.0	30.0	6	21	m	30.0	11	73
Frame#	Time	THUMB_TIP	THUMB_IP	THUMB_MCP	THUMB_CMC	INDEX_TIP	INDEX_DIP	INDEX_PIP	INDEX_MCP	MIDDLE_TIP	MIDDLE_DIP	MIDDLE_PIP	MIDDLE_MCP	RING_TIP	RING_DIP	RING_PIP	RING_MCP	PINKY_TIP	PINKY_DIP	PINKY_PIP	PINKY_MCP	WRIST
X1	Y1	Z1	X2	Y2	Z2	X3	Y3	Z3	X4	Y4	Z4	X5	Y5	Z5	X6	Y6	Z6	X7	Y7	Z7	X8	Y8	Z8	X9	Y9	Z9	X10	Y10	Z10	X11	Y11	Z11	X12	Y12	Z12	X13	Y13	Z13	X14	Y14	Z14	X15	Y15	Z15	X16	Y16	Z16	X17	Y17	Z17	X18	Y18	Z18	X19	Y19	Z19	X20	Y20	Z20	X21	Y21	Z21
9	0.33333333333333187	0.5159043887666694	-0.016125646948979444	-0.15951463385845827	0.5029094020833043	-0.019910985623955324	-0.14094580157920883	0.4790628842360338	-0.026372483929978485	-0.12201401280474067	0.4723056298191811	-0.02949662891700322	-0.07803141134864255	0.5704567151455094	0.020694467448644893	-0.15502845547989275	0.5540127955992924	0.025515777396589834	-0.14916735657752056	0.530942890741192	0.02806153200245609	-0.13950772634003689	0.4954140382797707	0.015689674177753576	-0.11955092622729596	0.592641301116088	0.021380978462781974	-0.1326545566054752	0.5763831384347069	0.026084488220794344	-0.12620869419753994	0.5495390223531942	0.03097631232857201	-0.11596794038247177	0.5086413362369404	0.02472758344635073	-0.09910138831357268	0.5951454663833728	0.00905318730855953	-0.11163082197412799	0.580173977166053	0.01558275100016171	-0.10400066413742581	0.5586258448875587	0.022916263382988022	-0.09389731961991815	0.5207157171375991	0.02409836119579023	-0.07989211727426415	0.5940300240586156	-0.01524064242297496	-0.07987326054153032	0.5799436449180323	-0.007153771614424431	-0.07447173823448061	0.561648816580167	0.0013215831521132815	-0.06861685679508633	0.5274219402817097	0.010418642798439182	-0.06178693032100957	0.4622830810018608	-0.023011742144276925	-0.051989820119430985
10	0.3666666666666651	0.5153105097042459	-0.015487753110985936	-0.1597507477434394	0.5023603069640546	-0.019341412496832078	-0.14116468957270772	0.47857877626314227	-0.025803457337497893	-0.1221515158765889	0.4720292285672405	-0.029357795226282568	-0.07817015497050211	0.5698524286598121	0.022138648097608682	-0.15557900509577005	0.5534506814858273	0.026762868265172157	-0.14944718012415048	0.5304607794032618	0.029019432042141524	-0.13952840221784985	0.4952170856693979	0.016146440087408287	-0.11938381922075147	0.5923901177565634	0.02312591448306811	-0.1331057495280658	0.5761307081372433	0.027552292298950842	-0.1264695775696083	0.5493050082490988	0.03194900409095236	-0.11595956801065532	0.5086050394180008	0.024950666861837778	-0.09891011833697816	0.5950549939922061	0.009931352583206876	-0.11246643343377516	0.5801394508912865	0.016294172369961446	-0.10458981624326147	0.5586587723950562	0.023386960376563626	-0.09417574937987944	0.5208455236610184	0.0239481635017732	-0.07987315852262383	0.5938535972082888	-0.016454865799376717	-0.08057409704626001	0.5799172700886279	-0.008220936096190012	-0.07500802230217124	0.5617584117487283	0.0004265907749245734	-0.06898405668102003	0.527667281567148	0.009882624643472115	-0.061965387475292455	0.4622830810018609	-0.023011742144276925	-0.051989820119430985
11	0.39999999999999825	0.5145812678539438	-0.014902052746009198	-0.16007896950752126	0.5017312463680043	-0.018825779088560535	-0.14143811868467365	0.4780623702502419	-0.025291671320921028	-0.12228618559786697	0.4717648689360031	-0.029220377760723504	-0.07829986109914328	0.5693203486643504	0.023587637267998285	-0.15605522456129	0.5529502586656316	0.027989597510991726	-0.149680046175319	0.5300364064117326	0.029938969790277437	-0.1395230212367241	0.495079129800547	0.016566684693029354	-0.11920537134292525	0.5922082571184353	0.024996103525972924	-0.13345728049546113	0.5759317483422607	0.029093018610087396	-0.1266535646832992	0.5491095762391514	0.03292953633149287	-0.11591756144910986	0.5086147339353727	0.025110088409048603	-0.09873699388047902	0.5950913990349442	0.010954714499570972	-0.11314921713445092	0.5801863461257497	0.017087116426490634	-0.10507251951841856	0.558732552749128	0.02388862642385159	-0.09441164757898368	0.5210025786922502	0.023747162541806976	-0.07988065037860526	0.5938100393595538	-0.01746322811751544	-0.08116651876793357	0.5799505745840994	-0.009169975590317958	-0.07549755072621112	0.5618821049385025	-0.0004206318440249657	-0.06935007907720381	0.5279116149904106	0.00933309317566855	-0.06215604599924335	0.4622830810018608	-0.023011742144276925	-0.051989820119430985
12	0.43333333333333146	0.5136044113509084	-0.014509865837080582	-0.16058395548918275	0.5009463082444361	-0.018456861586982343	-0.14181713236175458	0.4774520063973905	-0.024870881264415945	-0.12243419831405666	0.47147794864141024	-0.029096610109146326	-0.07843029110504823	0.5688841034997121	0.0250877244624248	-0.15647839662414115	0.5525304836165428	0.029219976869924613	-0.14988418653061808	0.5296871849787702	0.030821593287636673	-0.1395097773813675	0.4950438510725095	0.01688602729531752	-0.11903355921655379	0.5921725752678338	0.02715319072889566	-0.13357481690118295	0.5758414049565856	0.030816178650387216	-0.12665561205149012	0.5489903753136302	0.03396819051755673	-0.1157699986878643	0.5087006445296729	0.025187740038828954	-0.09857147538652072	0.5954044309394124	0.012058536804937403	-0.11350145994683741	0.5804407841981429	0.017878415309408813	-0.10530278381006442	0.5589392659751693	0.02428415494747882	-0.09449393591602917	0.5212464703525703	0.023433100796365403	-0.07989086435608483	0.5939692639989237	-0.01839780143412606	-0.0815341836242795	0.5801001456642341	-0.010135507563359014	-0.07584366022028066	0.5620596024242069	-0.0013614170485712895	-0.06964961838614464	0.5281929990462026	0.00868624985126043	-0.062370812405286524	0.4622830810018608	-0.023011742144276925	-0.05198982011943093
13	0.4666666666666647	0.5123911492830686	-0.0143428375504705	-0.16124059137171842	0.5000003330719862	-0.018265496137207626	-0.1422911738810652	0.47674214607058407	-0.024569619361196393	-0.12259003767564369	0.47119614277793453	-0.028994904464451188	-0.0785497300105873	0.5685329701453394	0.02655746574100948	-0.15688890593825083	0.5521872004171022	0.03039018879697153	-0.15009729007987505	0.5294159427733782	0.03160353427702123	-0.13951393281154162	0.4951046998123455	0.01707780684638982	-0.11888924025431835	0.5922430283700852	0.029313781567975705	-0.13353058360826342	0.5758411989966661	0.032493179184704846	-0.12653977364088598	0.5489456587382362	0.034924855505847896	-0.11557955400456615	0.5088505202305882	0.02514547293153102	-0.09846548185566867	0.5959580971804317	0.013192706138879018	-0.11356794311029783	0.5808616735222898	0.018605214489633926	-0.10533370082051169	0.559238894421016	0.0245230584123719	-0.09448867771110186	0.5215428078455449	0.023020518205665308	-0.07994672929206897	0.5942964500448856	-0.019232307814779692	-0.08172197790231894	0.5803433393920692	-0.011075072184160373	-0.07608547100736929	0.5622790579171602	-0.0023367703618316638	-0.0699100491548037	0.5284916463225895	0.007970923038019495	-0.06262679950140482	0.4622830810018609	-0.023011742144276925	-0.05198982011943104
14	0.4999999999999978	0.5110298899386193	-0.014407600985282931	-0.1620001375857344	0.4989733384659947	-0.01826950708990116	-0.1428239740531853	0.47599815920257116	-0.02441317902205442	-0.12274372422895186	0.470907928614516	-0.028934641413290496	-0.0786581718290435	0.5682758775705161	0.027813992825107103	-0.15728747650339275	0.5519357181842295	0.03136014807392851	-0.15032874284115183	0.5292347363582488	0.03219065752895334	-0.13955908587439503	0.4952419816543141	0.017136592786171523	-0.1187864149734672	0.5924185698387503	0.031178039800749846	-0.13338303899024595	0.57594881414517	0.03389371777886352	-0.1263565006879977	0.549008709786488	0.03565509302561576	-0.115377526037173	0.509082528396828	0.02497817019898929	-0.09840545251640831	0.596681642731954	0.014118181350168069	-0.11340969084011576	0.5814148419578993	0.019091023731915846	-0.10521239660533216	0.5596370979862056	0.024494087423028388	-0.09440884398347932	0.5219030539165019	0.02250510502879499	-0.08002459213706442	0.5947684603211	-0.020044368514591016	-0.08170693423945086	0.5806772918538655	-0.012052025399998723	-0.0761786955717878	0.5625458655531078	-0.003396970085872808	-0.0700833353027297	0.5288199882710785	0.007167831210859954	-0.06288377794702654	0.4622830810018608	-0.023011742144276925	-0.051989820119430985
